PathFileType	4	(X/Y/Z)	/Users/itak/Documents/Research/Walk-IL/dataset/trc/00437_00167.trc
DataRate	CameraRate	NumFrames	NumMarkers	Units	OrigDataRate	OrigDataStartFrame	OrigNumFrames
100.000000	100.000000	4	53	mm	100.000000	483	553
Frame#	Time	RPSI			LPSI			L3			STRN			T10			C7			CLAV			RBAK			LBAK			LSHO			LUPA			LAEL			LAOL			LWTS			LWPS			LFRA			LIFD			LHPS			LHTS			RSHO			RUPA			RAEL			RAOL			RWTS			RWPS			RFRA			RIFD			RHTS			RHPS			RBHD			LFHD			RFHD			LBHD			LHIP			RHIP			RASI			LASI			LKNE			LTHI			LANK			LTIP			LTOE			LMT1			LMT5			LHEE			RKNE			RTHI			RANK			RTIP			RTOE			RMT1			RMT5			RHEE			
		X1	Y1	Z1	X2	Y2	Z2	X3	Y3	Z3	X4	Y4	Z4	X5	Y5	Z5	X6	Y6	Z6	X7	Y7	Z7	X8	Y8	Z8	X9	Y9	Z9	X10	Y10	Z10	X11	Y11	Z11	X12	Y12	Z12	X13	Y13	Z13	X14	Y14	Z14	X15	Y15	Z15	X16	Y16	Z16	X17	Y17	Z17	X18	Y18	Z18	X19	Y19	Z19	X20	Y20	Z20	X21	Y21	Z21	X22	Y22	Z22	X23	Y23	Z23	X24	Y24	Z24	X25	Y25	Z25	X26	Y26	Z26	X27	Y27	Z27	X28	Y28	Z28	X29	Y29	Z29	X30	Y30	Z30	X31	Y31	Z31	X32	Y32	Z32	X33	Y33	Z33	X34	Y34	Z34	X35	Y35	Z35	X36	Y36	Z36	X37	Y37	Z37	X38	Y38	Z38	X39	Y39	Z39	X40	Y40	Z40	X41	Y41	Z41	X42	Y42	Z42	X43	Y43	Z43	X44	Y44	Z44	X45	Y45	Z45	X46	Y46	Z46	X47	Y47	Z47	X48	Y48	Z48	X49	Y49	Z49	X50	Y50	Z50	X51	Y51	Z51	X52	Y52	Z52	X53	Y53	Z53	

484	4.83	1172.34814453125	953.6422729492188	1098.807861328125	1260.734375	953.2373657226562	988.23486328125	1212.334228515625	1046.594482421875	1060.627563476562	1427.517822265625	1248.333251953125	1203.067016601562	1194.234252929688	1169.51171875	1044.455932617188	1232.262573242188	1440.608764648438	1085.572875976562	1396.040283203125	1360.5234375	1176.156372070312	1130.242065429688	1317.248413085938	1132.068969726562	1263.389770507812	1392.544067382812	986.5379638671875	1394.976318359375	1412.834106445312	975.5382690429688	1434.985107421875	1290.070556640625	885.9334716796875	1446.605712890625	1069.80810546875	873.9794311523438	1345.78662109375	1065.280029296875	897.0923461914062	1471.229858398438	859.2877197265625	939.0364379882812	1453.089233398438	849.2471923828125	868.033447265625	1458.178588867188	980.274169921875	870.83056640625	1452.990966796875	691.8916625976562	931.2543334960938	1447.681762695312	767.6709594726562	869.19482421875	1477.911254882812	768.2425537109375	933.3646240234375	1203.473510742188	1407.821655273438	1259.474609375	1151.905395507812	1344.889404296875	1316.231323242188	1145.951416015625	1057.019653320312	1377.6572265625	1111.614868164062	1040.272216796875	1321.790283203125	1261.188354492188	859.0731811523438	1375.654052734375	1180.079833984375	841.5985107421875	1403.335571289062	1147.6953125	998.8751220703125	1388.567016601562	1264.957885742188	701.2805786132812	1386.836669921875	1281.028442382812	764.8291015625	1399.473266601562	1199.326171875	755.3597412109375	1410.029296875	1262.259643554688	1637.679565429688	1209.919555664062	1461.62890625	1646.529663085938	1156.026245117188	1389.204223632812	1644.32177734375	1263.868041992188	1347.008422851562	1646.480712890625	1055.1513671875	1440.497802734375	850.9467163085938	980.0040893554688	1178.140625	849.6255493164062	1279.257446289062	1295.3564453125	890.8248901367188	1295.105224609375	1467.657958984375	889.7088012695312	1102.43359375	1408.508178710938	427.7550659179688	1022.578125	1445.103759765625	580.400146484375	1014.895812988281	1336.767211914062	23.58319473266602	975.397705078125	1400.65087890625	272.7740783691406	1010.719055175781	1439.717651367188	31.11041069030762	1186.581420898438	1368.53759765625	36.93028259277344	1151.880859375	1449.942993164062	30.3421688079834	1072.7236328125	1264.734252929688	26.12089920043945	969.7107543945312	1207.719482421875	452.0791015625	1261.755126953125	1213.761962890625	767.2037963867188	1250.484985351562	1185.768188476562	30.47230911254883	1231.306030273438	1198.58935546875	308.5097351074219	1268.078857421875	1389.808837890625	35.36111450195312	1313.95849609375	1356.412231445312	40.39176940917969	1249.161010742188	1281.358032226562	35.93414306640625	1327.103149414062	1157.7060546875	21.98805809020996	1157.422241210938	
485	4.84	1171.914184570312	953.51953125	1099.723510742188	1259.693603515625	953.0004272460938	988.7254028320312	1211.534545898438	1046.83544921875	1061.536987304688	1427.928466796875	1248.323120117188	1202.7763671875	1193.441162109375	1169.770629882812	1045.578247070312	1232.221313476562	1440.757202148438	1086.62890625	1396.449462890625	1360.582275390625	1176.14013671875	1130.379150390625	1317.55615234375	1133.887329101562	1262.70068359375	1392.732177734375	987.4432983398438	1394.142822265625	1413.145629882812	975.6924438476562	1433.9365234375	1290.595458984375	885.8052368164062	1445.993041992188	1070.375366210938	873.6619262695312	1345.253051757812	1065.567138671875	897.1429443359375	1471.4296875	859.8919677734375	938.8778076171875	1453.261108398438	849.8184204101562	867.8815307617188	1457.852416992188	980.877197265625	870.525390625	1453.4921875	692.4000854492188	931.0533447265625	1448.11181640625	768.2432861328125	869.0372924804688	1478.180297851562	768.8187255859375	933.2770385742188	1204.587890625	1408.112182617188	1260.745361328125	1153.270751953125	1345.39453125	1317.876953125	1146.700561523438	1057.366943359375	1378.7109375	1112.264770507812	1040.76416015625	1322.849365234375	1261.64306640625	859.1873168945312	1376.549194335938	1180.410888671875	841.7457885742188	1403.9541015625	1148.360107421875	999.2225341796875	1389.55908203125	1264.92578125	701.204345703125	1386.956298828125	1281.646118164062	764.9886474609375	1400.2646484375	1199.430053710938	755.385009765625	1410.292358398438	1261.76220703125	1637.5849609375	1210.052856445312	1461.277465820312	1647.048706054688	1156.752807617188	1388.500732421875	1644.680786132812	1264.377075195312	1346.937622070312	1646.559936523438	1055.566162109375	1439.71875	850.9664916992188	979.9957275390625	1178.568237304688	849.5255126953125	1279.858276367188	1295.634155273438	890.6636352539062	1295.392456054688	1467.27783203125	890.0022583007812	1102.146606445312	1409.862548828125	427.5702209472656	1024.448486328125	1445.74072265625	580.5089721679688	1016.088073730469	1336.755737304688	23.67817306518555	975.4667358398438	1401.432495117188	272.4239196777344	1012.024291992188	1439.739868164062	31.06424903869629	1186.6396484375	1368.534301757812	36.83614349365234	1151.999633789062	1449.921508789062	30.38816833496094	1072.811645507812	1264.729614257812	26.23177337646484	969.8148193359375	1207.990112304688	452.0873107910156	1262.0537109375	1214.09619140625	767.3842163085938	1250.878295898438	1185.806884765625	30.48571014404297	1231.272216796875	1198.816772460938	308.44873046875	1268.2783203125	1389.821655273438	35.36144256591797	1313.9599609375	1356.420776367188	40.38204193115234	1249.151733398438	1281.385986328125	35.96607971191406	1327.09130859375	1157.726196289062	22.01994514465332	1157.409423828125	
486	4.850000000000001	1171.498168945312	953.4464721679688	1100.58154296875	1258.709106445312	952.7825317382812	989.1895141601562	1210.796508789062	1047.01806640625	1062.423217773438	1428.34228515625	1248.298217773438	1202.478515625	1192.711547851562	1169.992797851562	1046.678833007812	1232.140014648438	1440.865600585938	1087.6669921875	1396.839965820312	1360.614868164062	1176.099975585938	1130.503540039062	1317.803344726562	1135.682373046875	1261.959716796875	1392.861206054688	988.3261108398438	1393.24755859375	1413.402954101562	975.8020629882812	1432.866577148438	1291.03662109375	885.694091796875	1445.695678710938	1070.884887695312	873.420654296875	1345.002685546875	1065.721313476562	897.107666015625	1471.948852539062	860.4400024414062	938.85205078125	1453.909545898438	850.3164672851562	867.8252563476562	1457.91064453125	981.433837890625	870.322998046875	1454.196044921875	692.8570556640625	931.03271484375	1448.9736328125	768.7276611328125	869.0009765625	1478.713745117188	769.3147583007812	933.3745727539062	1205.687377929688	1408.353149414062	1261.98291015625	1154.639770507812	1345.8251953125	1319.482299804688	1147.52294921875	1057.645141601562	1379.832763671875	1112.922607421875	1041.194091796875	1324.049560546875	1262.175170898438	859.2257080078125	1377.29541015625	1180.89111328125	841.8311767578125	1404.61376953125	1149.122802734375	999.502685546875	1390.614624023438	1264.910522460938	700.9030151367188	1386.673706054688	1282.341186523438	765.072509765625	1400.907104492188	1199.7001953125	755.3212890625	1410.481323242188	1261.302001953125	1637.491455078125	1210.174194335938	1460.950439453125	1647.509643554688	1157.402221679688	1387.85498046875	1645.00390625	1264.825317382812	1346.873657226562	1646.628540039062	1055.937622070312	1438.942749023438	850.9321899414062	979.9544067382812	1179.006591796875	849.46142578125	1280.364868164062	1295.9111328125	890.501708984375	1295.673706054688	1466.888427734375	890.2239990234375	1101.847045898438	1411.159545898438	427.3683166503906	1026.195922851562	1446.3046875	580.5740966796875	1017.198303222656	1336.731201171875	23.76771545410156	975.5309448242188	1402.164794921875	272.06640625	1013.236022949219	1439.763671875	31.02137184143066	1186.680786132812	1368.542602539062	36.75175476074219	1152.097900390625	1449.9052734375	30.43061256408691	1072.879150390625	1264.706298828125	26.31947135925293	969.915771484375	1208.21826171875	452.12060546875	1262.305908203125	1214.387939453125	767.5896606445312	1251.225219726562	1185.846801757812	30.50263214111328	1231.23583984375	1199.007080078125	308.3977966308594	1268.447143554688	1389.833862304688	35.36252212524414	1313.964233398438	1356.42919921875	40.3714599609375	1249.14404296875	1281.409790039062	35.99696350097656	1327.082641601562	1157.75048828125	22.05327224731445	1157.388671875	
487	4.86	1171.101928710938	953.4257202148438	1101.388549804688	1257.788940429688	952.5970458984375	989.6356201171875	1210.130859375	1047.139526367188	1063.283569335938	1428.757568359375	1248.255737304688	1202.180786132812	1192.052368164062	1170.174438476562	1047.756713867188	1232.0205078125	1440.93212890625	1088.685546875	1397.207397460938	1360.620239257812	1176.043701171875	1130.611083984375	1317.98681640625	1137.438720703125	1261.173583984375	1392.929931640625	989.18017578125	1392.301025390625	1413.593994140625	975.8724975585938	1431.780151367188	1291.377197265625	885.6045532226562	1445.687377929688	1071.3212890625	873.2474975585938	1345.011474609375	1065.730590820312	896.98681640625	1472.772216796875	860.926513671875	938.9434204101562	1454.990966796875	850.7328491210938	867.8566284179688	1458.319580078125	981.9269409179688	870.2151489257812	1455.142944335938	693.255859375	931.1814575195312	1450.237915039062	769.116943359375	869.0790405273438	1479.5283203125	769.7329711914062	933.6325073242188	1206.757568359375	1408.531372070312	1263.179931640625	1155.999267578125	1346.161010742188	1321.036499023438	1148.444458007812	1057.84619140625	1381.033447265625	1113.598388671875	1041.546752929688	1325.40771484375	1262.78662109375	859.1740112304688	1377.872436523438	1181.538452148438	841.8488159179688	1405.332641601562	1150.004150390625	999.7039794921875	1391.74462890625	1264.92236328125	700.3566284179688	1386.026000976562	1283.115600585938	765.0662231445312	1401.380493164062	1200.158447265625	755.175537109375	1410.647827148438	1260.877319335938	1637.397338867188	1210.285034179688	1460.643676757812	1647.917846679688	1157.968627929688	1387.2685546875	1645.296997070312	1265.214111328125	1346.813110351562	1646.681884765625	1056.26318359375	1438.171997070312	850.8490600585938	979.8860473632812	1179.457275390625	849.43408203125	1280.7998046875	1296.20654296875	890.3549194335938	1295.96728515625	1466.492797851562	890.3701782226562	1101.54248046875	1412.372314453125	427.1590270996094	1027.792602539062	1446.78125	580.5977783203125	1018.21435546875	1336.690673828125	23.84818840026855	975.59033203125	1402.83203125	271.7088317871094	1014.32958984375	1439.790771484375	30.98013305664062	1186.70361328125	1368.559936523438	36.67722320556641	1152.175659179688	1449.89306640625	30.46967124938965	1072.923217773438	1264.662109375	26.38317108154297	970.0116577148438	1208.407592773438	452.177490234375	1262.525756835938	1214.640747070312	767.8186645507812	1251.539916992188	1185.886962890625	30.52352714538574	1231.19921875	1199.16748046875	308.3578796386719	1268.59423828125	1389.845092773438	35.36413955688477	1313.970947265625	1356.437133789062	40.3604736328125	1249.138061523438	1281.429931640625	36.02603530883789	1327.076293945312	1157.78076171875	22.08758544921875	1157.359130859375	
